<?xml version="1.0" encoding="utf-8"?><svg viewBox="0 0 132 72" xmlns="http://www.w3.org/2000/svg" xmlns:xlink="http://www.w3.org/1999/xlink"><style>:root>svg{display:none}:root>svg:target{display:block}</style><svg fill="none" viewBox="0 0 10 6" id="arrow" xmlns="http://www.w3.org/2000/svg"><path fill-rule="evenodd" clip-rule="evenodd" d="M9.78.22a.75.75 0 0 1 0 1.06L5.53 5.53a.75.75 0 0 1-1.06 0L.22 1.28A.75.75 0 0 1 1.28.22L5 3.94 8.72.22a.75.75 0 0 1 1.06 0Z" fill="#474747"/></svg><svg fill="none" viewBox="0 0 24 24" id="arrow-slider" xmlns="http://www.w3.org/2000/svg"><rect width="24" height="24" rx="3" fill="#01C2FF"/><path d="M9.08 12.126a.947.947 0 0 1 0-1.345l4.415-4.398a.952.952 0 0 1 1.342 1.346l-3.74 3.724 3.74 3.724a.949.949 0 1 1-1.342 1.346L9.08 12.126Z" fill="#fff"/></svg><svg fill="none" viewBox="0 0 132 72" id="logo" xmlns="http://www.w3.org/2000/svg"><path fill-rule="evenodd" clip-rule="evenodd" d="M72.354 70.828h.77l.818-6.595 3.139 6.951 3.139-6.95.818 6.594h.77l-1.16-9.268-3.567 7.944-3.566-7.944-1.16 9.268Zm16.903 0h4.58v-.713h-3.75v-3.92h3.615v-.714h-3.615V62.63h3.75v-.712h-4.58v8.91Zm12.201 0h2.125c1.498 0 2.604-.38 3.316-1.14a4.73 4.73 0 0 0 1.289-2.514c.016-.136.03-.27.042-.4.013-.132.019-.266.019-.402a4.885 4.885 0 0 0-.099-.967c-.171-.874-.612-1.674-1.325-2.4-.712-.726-1.793-1.089-3.242-1.089h-2.125v8.912Zm.831-.713V62.63h1.209c1.213 0 2.161.35 2.845 1.05.684.701 1.026 1.599 1.026 2.693a4.195 4.195 0 0 1-.868 2.597c-.578.764-1.579 1.146-3.004 1.146h-1.208Zm13.581.713h.83v-8.912h-.83v8.912Zm7.901 0h.855l1.185-2.903h3.578l1.185 2.903h.855l-3.823-9.166-3.835 9.166Zm2.333-3.615 1.503-3.654 1.49 3.654h-2.993Z" fill="#000"/><path fill-rule="evenodd" clip-rule="evenodd" d="m3.338 71.185 3.338-9.214h-.905L3.338 68.97.905 61.97H0l3.338 9.214Zm10.418-.355h.832v-8.859h-.832v8.86Zm7.911 0h.856l1.186-2.885h3.582l1.187 2.885h.855l-3.827-9.112-3.839 9.112Zm2.335-3.594 1.504-3.632 1.492 3.632h-2.996Zm13.756 3.594h.832v-8.15h2.287v-.709H35.47v.709h2.287v8.15Zm10.198 0h4.585v-.709h-3.754v-3.897h3.62v-.71h-3.62V62.68h3.754v-.709h-4.585v8.86Zm12.215 0h.832v-4.303l3.828 4.303h1.112l-4.146-4.569 4.06-4.29H64.83l-3.827 4.113v-4.113h-.832v8.86Z" fill="#01C2FF"/><mask id="ca" style="mask-type:alpha" maskUnits="userSpaceOnUse" x="0" y="0" width="61" height="51"><path fill-rule="evenodd" clip-rule="evenodd" d="M18.732.52H0l21.925 50.185h18.21L60.745.5h-12.16L33.562 36.67 18.732.52Z" fill="#000"/></mask><g mask="url(#ca)"><path fill="url(#cb)" d="M-321.393-1.867H54.591V53.04h-375.984z"/></g><mask id="cc" style="mask-type:alpha" maskUnits="userSpaceOnUse" x="21" y="0" width="62" height="51"><path fill-rule="evenodd" clip-rule="evenodd" d="M40.191 50.673H21.914L43.537.504H60.65l21.551 49.974H69.496L55.01 14.479l-14.82 36.194Z" fill="#1B3E8B"/></mask><g mask="url(#cc)"><path fill="url(#cd)" d="M-321.393-1.867H54.591V53.04h-375.984z"/></g><mask id="ce" style="mask-type:alpha" maskUnits="userSpaceOnUse" x="43" y="0" width="89" height="51"><path fill-rule="evenodd" clip-rule="evenodd" d="m43.568.5 17.086.02 13.21 29.67L86.706.505h3.799L90.507.5h6.177l-.002.004h13.046l21.552 49.973h-18.613L98.183 14.48 83.559 50.477h-19.61L43.568.5Z" fill="#2454C0"/></mask><g mask="url(#ce)"><path fill="url(#cf)" d="M-244.556-1.867h375.984V53.04h-375.984z"/></g><defs><linearGradient id="cb" x1="-321.393" y1="-1.867" x2="54.591" y2="-1.867" gradientUnits="userSpaceOnUse"><stop stop-color="#003566"/><stop offset=".226" stop-color="#003566"/><stop offset=".563" stop-color="#2C84D5"/><stop offset=".872" stop-color="#003566"/><stop offset="1" stop-color="#003566"/></linearGradient><linearGradient id="cd" x1="-321.393" y1="14.858" x2="54.591" y2="14.858" gradientUnits="userSpaceOnUse"><stop stop-color="#0087D2"/><stop offset=".25" stop-color="#0087D2"/><stop offset=".464" stop-color="#79CFFF"/><stop offset=".755" stop-color="#0087D2"/><stop offset="1" stop-color="#0087D2"/></linearGradient><linearGradient id="cf" x1="-244.556" y1="14.858" x2="131.429" y2="14.858" gradientUnits="userSpaceOnUse"><stop stop-color="#01C2FF"/><stop offset=".25" stop-color="#01C2FF"/><stop offset=".464" stop-color="#7ADEFE"/><stop offset=".755" stop-color="#01C2FF"/><stop offset="1" stop-color="#01C2FF"/></linearGradient></defs></svg><svg fill="none" viewBox="0 0 20 20" id="shape" xmlns="http://www.w3.org/2000/svg"><path d="M17.026 18.993c1.046.094 1.978-.77 1.974-1.807v-2.71a1.804 1.804 0 0 0-.43-1.212c-.808-.953-3.585-1.563-4.685-1.329-.858.183-1.458 1.044-2.044 1.63A14.479 14.479 0 0 1 8.543 11M6.41 8.145c.587-.586 1.45-1.185 1.633-2.04.234-1.097-.375-3.856-1.322-4.668A1.812 1.812 0 0 0 5.523 1H2.808c-1.034.001-1.895.929-1.8 1.97C1 10.903 6.482 17.35 14 18.722" stroke="#01C2FF" stroke-width="1.5" stroke-linecap="round" stroke-linejoin="round"/></svg><svg fill="none" viewBox="0 0 45 45" id="telegram" xmlns="http://www.w3.org/2000/svg"><g clip-path="url(#ea)"><path d="M22.5 37.5a15 15 0 1 0 0-30 15 15 0 0 0 0 30Zm0 3.75c-10.356 0-18.75-8.394-18.75-18.75S12.144 3.75 22.5 3.75s18.75 8.394 18.75 18.75-8.394 18.75-18.75 18.75Zm-5.831-16.556-4.684-1.46c-1.012-.31-1.018-1.008.227-1.508l18.25-7.05c1.059-.432 1.659.114 1.316 1.48L28.67 30.82c-.218 1.045-.846 1.294-1.718.812l-4.783-3.54-2.23 2.153c-.228.221-.414.41-.766.457-.35.049-.64-.056-.851-.637L16.69 24.68l-.022.015v-.002Z" fill="#fff"/></g><defs><clipPath id="ea"><path fill="#fff" d="M0 0h45v45H0z"/></clipPath></defs></svg><svg fill="none" viewBox="0 0 45 45" id="viber" xmlns="http://www.w3.org/2000/svg"><path d="M12.933 38.304c0-.541-.027-1.086.01-1.627.03-.438-.14-.637-.566-.773-2.663-.852-4.739-2.439-6.152-4.824-.983-1.66-1.561-3.462-1.824-5.35-.587-4.233-.575-8.46.345-12.65.456-2.083 1.33-3.998 2.78-5.626 1.05-1.184 2.39-1.962 3.83-2.58 2.428-1.042 5-1.504 7.626-1.744 1.912-.174 3.827-.148 5.737-.068 3.195.136 6.302.675 9.255 1.965 2.869 1.252 4.706 3.371 5.725 6.227.732 2.048 1.071 4.167 1.22 6.325.202 2.968.015 5.913-.433 8.846-.345 2.26-1.156 4.356-2.648 6.156-1.286 1.55-2.92 2.61-4.838 3.252-2.787.935-5.664 1.367-8.602 1.516-1.534.076-3.056.008-4.581-.05a.683.683 0 0 0-.605.263 410.234 410.234 0 0 1-2.832 3.21c-.342.385-.7.761-1.162 1.013-.878.476-1.78.139-2.106-.79-.309-.88-.142-1.794-.179-2.69Zm1.434 2.176c.118-.086.16-.107.194-.142 1.576-1.711 3.171-3.404 4.717-5.138.49-.548.98-.811 1.764-.779 3.45.142 6.848-.218 10.173-1.166 1.431-.408 2.714-1.053 3.78-2.086 1.503-1.462 2.29-3.28 2.632-5.28.46-2.699.632-5.416.43-8.154-.143-1.911-.44-3.79-1.139-5.59-.64-1.654-1.588-3.087-3.207-3.99-1.386-.772-2.871-1.284-4.423-1.618-3.08-.67-6.197-.77-9.329-.607-2.16.112-4.27.482-6.312 1.198-2.926 1.027-4.859 2.969-5.776 5.884a18.181 18.181 0 0 0-.81 4.652c-.125 2.714-.225 5.425.344 8.11.75 3.542 2.63 6.206 6.24 7.443.595.204.744.485.735 1.06-.034 2.036-.013 4.075-.013 6.203Z" fill="#fff"/><path d="M28.064 30.71c-.312.009-.596-.083-.878-.195-3.15-1.258-5.99-2.995-8.411-5.336-2.878-2.78-5.053-6.005-6.382-9.767-.42-1.187-.157-2.128.817-2.903.442-.352.896-.696 1.368-1.012.865-.586 1.737-.504 2.442.263.89.965 1.703 1.995 2.366 3.128.142.24.251.503.342.767.203.577.12 1.104-.37 1.527-.326.284-.662.56-.992.837-.405.347-.526.776-.411 1.29.39 1.747 1.495 3.025 2.835 4.147.799.669 1.676 1.208 2.702 1.495.532.15.96.02 1.298-.397.2-.245.393-.494.593-.737.536-.657 1.31-.87 2.073-.497 1.452.716 2.714 1.705 3.906 2.773.384.346.584.84.384 1.356-.526 1.373-1.422 2.447-2.796 3.095-.272.13-.578.18-.886.166ZM31.332 20.059c-.088.275.151.725-.264.76-.46.039-.296-.444-.317-.69-.1-1.269-.27-2.52-.832-3.681-1.395-2.874-3.734-4.43-6.972-4.697-.166-.015-.336-.006-.502-.024-.203-.023-.436-.056-.415-.325.019-.231.227-.252.418-.263.472-.03.941.04 1.404.115 4.015.657 6.98 3.776 7.365 7.74.036.36.078.718.115 1.065Z" fill="#fff"/><path d="M28.987 19.265c0 .033.003.066 0 .098-.021.222.042.527-.281.542-.333.014-.312-.293-.318-.512-.015-.56-.06-1.116-.242-1.652-.696-2.045-2.14-3.237-4.303-3.61-.248-.042-.5-.074-.744-.116-.182-.032-.33-.124-.3-.325.03-.205.203-.24.384-.225 2.624.19 4.881 1.648 5.595 4.392.118.458.16.935.24 1.405l-.031.003Z" fill="#fff"/><path d="M23.967 15.877c1.513.065 2.73 1.338 2.702 2.814-.003.18.003.397-.233.432-.296.048-.293-.207-.336-.39-.072-.305-.1-.622-.205-.912-.264-.725-.82-1.14-1.577-1.308-.13-.03-.269-.033-.396-.065-.2-.053-.49-.05-.43-.361.043-.258.297-.201.475-.21Z" fill="#fff"/></svg><svg fill="none" viewBox="0 0 45 45" id="whatsapp" xmlns="http://www.w3.org/2000/svg"><g clip-path="url(#ga)"><path d="m13.6 34.676 1.357.793A14.911 14.911 0 0 0 22.5 37.5a15 15 0 1 0-15-15c0 2.692.707 5.274 2.032 7.545l.792 1.357-1.225 4.502 4.5-1.228ZM3.756 41.25l2.535-9.315A18.664 18.664 0 0 1 3.75 22.5c0-10.356 8.394-18.75 18.75-18.75s18.75 8.394 18.75 18.75-8.394 18.75-18.75 18.75a18.664 18.664 0 0 1-9.431-2.54l-9.312 2.54Zm11.976-27.547a6.33 6.33 0 0 1 .756-.008c.101.008.202.019.303.03.299.034.627.216.737.467a159.387 159.387 0 0 1 1.628 3.825c.116.285.047.65-.174 1.007-.153.24-.317.473-.494.697-.212.272-.667.77-.667.77s-.186.222-.114.498c.026.105.112.257.19.384l.111.178c.48.8 1.125 1.613 1.913 2.378.225.217.444.44.68.649a11.271 11.271 0 0 0 2.944 1.875l.01.003c.159.07.24.107.472.207.116.048.236.091.358.123a.656.656 0 0 0 .688-.244c1.358-1.644 1.482-1.75 1.493-1.75v.003a.902.902 0 0 1 .709-.238.973.973 0 0 1 .332.075 207.01 207.01 0 0 0 2.625 1.166l1.09.49c.184.088.351.296.357.496.008.126.019.329-.024.7-.06.485-.207 1.068-.353 1.374-.1.209-.233.4-.394.566-.189.199-.396.38-.618.54a6.817 6.817 0 0 1-.235.17 9.403 9.403 0 0 1-.718.412 3.731 3.731 0 0 1-1.562.43c-.347.02-.694.046-1.042.027-.015 0-1.065-.163-1.065-.163a17.716 17.716 0 0 1-7.2-3.836c-.424-.373-.816-.775-1.217-1.174-1.669-1.66-2.929-3.45-3.694-5.141a6.508 6.508 0 0 1-.62-2.651 5.117 5.117 0 0 1 1.057-3.15c.137-.177.266-.36.49-.572.238-.225.388-.345.55-.428.217-.109.454-.172.696-.187l.002.002Z" fill="#fff"/></g><defs><clipPath id="ga"><path fill="#fff" d="M0 0h45v45H0z"/></clipPath></defs></svg></svg>